<?xml version="1.0" standalone="no"?><!DOCTYPE svg PUBLIC "-//W3C//DTD SVG 1.1//EN" "http://www.w3.org/Graphics/SVG/1.1/DTD/svg11.dtd"><svg t="1554105874098" class="icon" style="" viewBox="0 0 1024 1024" version="1.1" xmlns="http://www.w3.org/2000/svg" p-id="25563" xmlns:xlink="http://www.w3.org/1999/xlink" width="32" height="32"><defs><style type="text/css"></style></defs><path d="M420.753 472.379l-8.405-0.327 0.234-5.996 8.054 0.315 4.88-0.381 4.944-0.964 4.652-1.329 4.501-2.113 4.32-2.314 3.858-2.855 3.659-3.241 3.039-3.607 2.651-3.829 2.225-4.163 2.706-7.321 5.628 2.08-2.946 7.889-2.582 4.788-3.002 4.314-3.577 4.195-4.126 3.639-4.508 3.297-4.724 2.526-5.241 2.418-5.259 1.491-5.58 1.067zM306.757 684.402l2.907 5.25-10.048 5.562-2.906-5.25zM259.94 665.235l4.573 9.491-5.406 2.604-4.572-9.49zM252.641 698.571l3.383 10.407-5.706 1.855-3.383-10.407zM842.49 105.262h6v753.364h-6z" fill="#518C9F" p-id="25564"></path><path d="M465.868 441.712l-5.844-1.364 3.735-16 2.583-12.889 1.723-13.181 1.291-12.915 0.65-13.134v-13.341l-0.65-13.135-1.301-13.004-1.713-13.091-2.603-12.981-3.715-15.909 5.844-1.364 3.734 16.001 2.676 13.374 1.736 13.283 1.331 13.319 0.661 13.432-0.004 13.64-0.669 13.432-1.309 13.081-1.779 13.573-2.623 13.08zM298.202 687.758l10.748 1.367-0.757 5.952-10.749-1.367zM261.482 662.738l3.91 4.552-7.172 6.159-3.91-4.552zM303.989 701.929l3.548 12.938-5.786 1.587-3.549-12.938zM798.24 136.325h6v695.323h-6zM313.549 465.249l-10.858-1.755-7.348-1.883-7.503-2.366-9.723-4.269 2.412-5.495 9.571 4.203 6.958 2.177 6.987 1.786 10.455 1.678z" fill="#518C9F" p-id="25565"></path><path d="M302.743 688.537l5.99 0.335-0.55 9.874-5.99-0.334zM261.504 662.772l7.384 8.653-4.564 3.895-7.384-8.654zM305.965 698.677l3.548 12.937-5.786 1.587-3.548-12.937zM531.469 136.325h6v695.323h-6zM213.959 282.298l-4.751-3.664 4.79-6.201 3.395-3.808 3.936-3.236 4.329-2.888 4.514-2.115 5.069-1.989 5.041-1.064 5.179-0.638 5.173 0.024 5.035 0.656 5.29 1.172 4.742 1.908 4.762 2.277 4.151 2.829 4.05 3.397 3.176 3.625 4.66 6.056-4.754 3.659-4.601-5.979-2.831-3.222-3.412-2.82-3.61-2.445-4.064-1.91-4.264-1.711-4.424-0.942-4.479-0.574h-4.408l-4.486 0.574-4.423 0.942-4.255 1.711-4.068 1.91-3.609 2.444-3.411 2.821-2.832 3.224z" fill="#518C9F" p-id="25566"></path><path d="M305.788 691.373l3.845 4.605-6.566 5.483-3.845-4.606zM266.896 663.096l1.004 10.674-5.973 0.562-1.005-10.674zM259.966 703.435l0.49 5.979-10.996 0.899-0.49-5.98zM820.037 115.89h6v736.194h-6zM250.444 474.213l-5.363-0.025-5.16-0.683-5.065-1.305-4.839-1.744-4.765-2.275-4.154-2.829-4.047-3.399-3.175-3.623-4.668-6.052 4.75-3.665 4.611 5.976 2.833 3.224 3.411 2.824 3.607 2.443 4.015 1.882 4.308 1.541 4.484 1.143 4.426 0.567h4.408l4.42-0.567 4.484-1.144 4.316-1.54 4.012-1.882 3.608-2.443 3.412-2.824 2.832-3.223 4.602-5.976 4.753 3.66-4.783 6.204-3.395 3.806-3.937 3.241-4.331 2.887-4.621 2.152-4.85 1.718-5.157 1.292z" fill="#518C9F" p-id="25567"></path><path d="M304.367 693.129l3.88 6.078-5.057 3.228-3.88-6.078zM268.248 661.163l2.552 5.43-8.044 3.78-2.551-5.431zM260.44 702.497l8.568 14.123-5.13 3.112-8.568-14.123zM509.886 115.89h6v736.194h-6zM312.704 484.878l95.581 2.18-0.137 5.998-95.581-2.18zM368.192 710.624l6.387 5.23-3.802 4.643-6.387-5.23z" fill="#518C9F" p-id="25568"></path><path d="M267.736 661.135h6v10.088h-6zM262.915 708.71l1.481 5.813-10.613 2.705-1.481-5.814zM349.259 717.132h14.278v6h-14.278zM135 852.626h713.49v6H135zM608.838 612.906h6v234.272h-6zM403.568 494.009l-2.554-5.429 5.193-2.444 1.845-1.099 1.316-1.543 1.281-1.888 0.822-1.854 0.313-1.916-0.165-2.022-0.523-1.968-0.841-1.9-1.319-1.699-1.531-1.276-4.776-2.847 3.073-5.154 5.362 3.24 2.212 1.843 2.168 2.794 1.39 3.23 0.744 2.982 0.246 3.022-0.556 3.398-1.503 3.275-1.725 2.508-2.065 2.422-3.081 1.819z" fill="#518C9F" p-id="25569"></path><path d="M276.207 659.672l1.458 5.82-9.09 2.277-1.459-5.82zM254.861 706.948l5.22 7.345-4.892 3.475-5.219-7.345zM266.337 714.733l1.865 5.703-10.069 3.293-1.864-5.703z" fill="#518C9F" p-id="25570"></path><path d="M264.036 625.782h6V829.19h-6zM317.197 491.713l-5.865-2.539-3.212-2.262-2.443-3.079-1.728-2.785-1.09-3.69-0.48-3.39 0.266-3.517 1.072-3.501 1.95-3.332 2.193-2.735 2.917-2.228 3-1.87 6.381-1.713 1.555 5.795-5.519 1.482-2.117 1.319-1.986 1.53-1.596 1.99-1.238 2.162-0.679 2.219-0.167 2.203 0.356 2.513 0.692 2.262 1.221 1.969 1.588 1.979 2.014 1.419 5.298 2.293zM275.815 659.473l3.765 10.559-5.651 2.015-3.766-10.558zM256.454 702.496l4.964 3.37-6.424 9.46-4.964-3.37zM367.344 713.247h6v112.265h-6zM320.158 276.043l-6.381-1.711-3.243-2.039-2.674-2.058-2.455-3.121-1.688-2.948-1.072-3.5-0.266-3.518 0.581-3.846 0.989-3.232 1.937-3.081 2.234-2.785 3.212-2.261 5.864-2.539 2.384 5.506-5.299 2.295-2.013 1.416-1.588 1.98-1.221 1.969-0.692 2.263-0.356 2.511 0.167 2.203 0.68 2.22 1.238 2.163 1.595 1.99 1.985 1.528 2.118 1.32 5.519 1.481z" fill="#518C9F" p-id="25571"></path><path d="M274.991 659.985l5.763 1.671-2.976 10.26-5.762-1.67zM283.651 711.818h23.651v6h-23.651z" fill="#518C9F" p-id="25572"></path><path d="M281.906 713.247h6v112.265h-6zM142.628 612.906h346.667v6H142.628zM408.165 237.816l0.136 5.998-95.58 2.18-0.138-5.998zM280.94 660.099l4.986 9.387-5.297 2.814-4.988-9.386zM257.357 696.917l1.938 5.678-10.47 3.574-1.938-5.679zM142.628 841.179h346.667v6H142.628zM334.436 717.132h6v10.698h-6zM211.025 456.168l-2.77-22.289-1.752-19.413-1.312-19.583-0.653-19.515 0.001-19.719 0.657-19.514 1.302-19.415 1.768-19.583 2.759-22.189 5.954 0.74-2.752 22.139-1.748 19.363-1.293 19.296-0.648 19.314v19.518l0.648 19.313 1.298 19.365 1.743 19.294 2.752 22.138zM409.725 262.815l0.44 5.984-94.905 6.975-0.44-5.983z" fill="#518C9F" p-id="25573"></path><path d="M282.78 660.098l5.291 2.83-5.017 9.38-5.29-2.831zM258.382 697.627l0.238 5.995-11.221 0.445-0.238-5.995zM326.373 717.132h6v10.698h-6zM418.285 258.568l0.35 5.99-9.48 0.552-0.35-5.99zM304.135 698.397l1.1 9.847-5.964 0.666-1.098-9.848zM245.848 680.266l11.228 0.433-0.231 5.996-11.229-0.433zM337.708 717.132h6v10.698h-6z" fill="#518C9F" p-id="25574"></path><path d="M298.473 694.649h6v10.087h-6zM249.913 674.973l8.308 8.608-4.317 4.166-8.308-8.608zM319.178 716.709l8.517 7.986-4.104 4.377-8.517-7.986z" fill="#518C9F" p-id="25575"></path><path d="M297.927 691.399l7.693 5.554-3.512 4.864-7.693-5.553zM249.126 672.434l10.548 3.14-1.712 5.75-10.548-3.14zM295.33 716.671l4.503 3.966-8.106 9.203-4.503-3.965z" fill="#518C9F" p-id="25576"></path><path d="M296.882 688.631l5.898 1.105-1.756 9.37-5.897-1.104zM250.77 693.406l3.32 9.329-5.653 2.012-3.32-9.329zM345.986 717.132h6v10.698h-6z" fill="#518C9F" p-id="25577"></path><path d="M301.164 679.079l1.396 15.787-5.976 0.529-1.397-15.787zM252.686 689.915l3.963 4.504-7.994 7.033-3.963-4.505zM349.259 717.132h6v10.698h-6z" fill="#518C9F" p-id="25578"></path><path d="M292.453 670.552l10.177 12.164-4.602 3.85-10.177-12.164zM245.074 691.175h10.358v6h-10.358zM357.537 717.132h6v10.698h-6zM281.793 660.52l9.329 2.187-1.37 5.842-9.328-2.187z" fill="#518C9F" p-id="25579"></path><path d="M249.48 686.7l2.194 9.734-5.853 1.32-2.194-9.735zM483.295 841.179h131.542v6H483.295zM266.716 713.201l6.38 11.595-5.257 2.892-6.38-11.594zM284.925 661.577l5.951 0.766-1.423 11.06-5.95-0.766z" fill="#518C9F" p-id="25580"></path><path d="M254.531 685.2l1.583 5.788-11.02 3.014-1.583-5.787zM264.026 714.263l4.645 3.798-6.636 8.117-4.645-3.797zM512.29 85.032h6v26.23h-6zM291.661 662.827l3.569 4.823-8.97 6.637-3.569-4.823z" fill="#518C9F" p-id="25581"></path><path d="M246.946 682.334l9.586 5.397-2.943 5.229-9.587-5.397zM263.005 711.785l5.658 1.996-2.43 6.886-5.658-1.997zM135 852.626h6V876h-6zM307.733 714.651l0.857 12.116-5.985 0.424-0.857-12.116zM512.29 105.262h336.2v6h-336.2zM290 662.847l8.183 4.941-3.101 5.136-8.183-4.94z" fill="#518C9F" p-id="25582"></path><path d="M246.388 679.805l5.868 1.252-1.906 8.93-5.868-1.252zM306.17 709.243l2.348 10.976-5.868 1.255-2.348-10.976zM531.469 825.648H804.24v6H531.469z" fill="#518C9F" p-id="25583"></path><path d="M310.722 714.354l0.416 12.534-5.996 0.199-0.417-12.534zM280.544 456.686l-5.03-13.355-3.534-10.802-2.859-10.949-2.426-11.148-1.987-11.208-1.321-11.156-0.877-11.212-0.218-11.298 0.227-11.476 0.88-11.152 1.335-11.207 1.984-11.151 2.432-11.154 2.882-11.007 3.526-10.749 4.986-13.232 5.615 2.115-4.964 13.171-3.433 10.476-2.792 10.683-2.378 10.917-1.936 10.896-1.292 10.89-0.857 10.886-0.214 11.094 0.214 11.094 0.857 10.887 1.292 10.892 1.936 10.894 2.378 10.918 2.792 10.68 3.433 10.477 4.964 13.17zM304.681 673.027l1.197 5.879-10.903 2.219-1.196-5.88zM263.977 669.284l4.038 4.439-11.85 10.779-4.037-4.438z" fill="#518C9F" p-id="25584"></path><path d="M292.589 717.948h15.59v6h-15.59zM158.985 625.782h6V829.19h-6zM280.307 280.408l-2.406-5.496 9.574-4.175 7.153-2.296 7.433-1.89 10.15-1.733 1.01 5.915-10.031 1.711-6.986 1.787-6.746 2.171zM303.406 672.46l5.22 8.845-5.167 3.05-5.22-8.846zM254.042 676.71l5.877 1.208-3.602 17.527-5.877-1.208z" fill="#518C9F" p-id="25585"></path><path d="M305.008 717.948h17.333v6h-17.333zM142.628 612.906h6v234.272h-6zM291.585 665.437l5.93 0.909-1.566 10.222-5.93-0.91zM249.532 672.283l5.522 2.348-3.65 8.586-5.522-2.348z" fill="#518C9F" p-id="25586"></path><path d="M308.051 705.849l3.395 13.8-5.826 1.433-3.395-13.8zM509.886 846.084h316.151v6H509.886zM337.049 768.019h10.798v6h-10.798zM283.651 821.154H371.6v6h-87.949zM337.049 776.396h10.798v6h-10.798z" fill="#518C9F" p-id="25587"></path><path d="M284.804 818.237l6.113 5.754-4.112 4.369-6.113-5.755zM341.847 771.9h6v10.496h-6zM370.445 818.28l4.113 4.368-6.113 5.755-4.113-4.368z" fill="#518C9F" p-id="25588"></path><path d="M337.049 771.9h10.798v6h-10.798zM337.708 721.83h14.278v6h-14.278z" fill="#518C9F" p-id="25589"></path><path d="M337.049 771.9h6v10.496h-6zM335.304 814.205h29.76v6h-29.76z" fill="#518C9F" p-id="25590"></path><path d="M335.304 785.797h6v34.408h-6z" fill="#518C9F" p-id="25591"></path><path d="M335.304 785.797h29.76v6h-29.76z" fill="#518C9F" p-id="25592"></path><path d="M332.908 787.227h6v8.249h-6zM313.069 757.184h6v20.717h-6z" fill="#518C9F" p-id="25593"></path><path d="M326.373 787.227h12.535v6h-12.535zM295.2 757.184h6v20.717h-6z" fill="#518C9F" p-id="25594"></path><path d="M326.373 787.227h6v8.249h-6zM310.682 730.212h6V777.9h-6z" fill="#518C9F" p-id="25595"></path><path d="M326.373 789.476h12.535v6h-12.535zM297.597 730.212h6V777.9h-6z" fill="#518C9F" p-id="25596"></path><path d="M332.908 791.928h6v8.246h-6zM320.482 721.83h6v99.191h-6z" fill="#518C9F" p-id="25597"></path><path d="M326.373 791.928h12.535v6h-12.535zM288.448 722.649h6v98.372h-6z" fill="#518C9F" p-id="25598"></path><path d="M326.373 791.928h6v8.246h-6zM313.598 805.21l11.778 11.056-4.107 4.375-11.777-11.056z" fill="#518C9F" p-id="25599"></path><path d="M326.373 794.174h12.535v6h-12.535zM314.422 807.184l6.432 15.562-5.545 2.292-6.432-15.562z" fill="#518C9F" p-id="25600"></path><path d="M332.908 796.425h6v8.452h-6zM299.84 807.186l5.543 2.295-6.441 15.56-5.544-2.294z" fill="#518C9F" p-id="25601"></path><path d="M300.77 805.226l4.104 4.377-11.79 11.054-4.104-4.377zM295.2 771.9h6v13.563h-6z" fill="#518C9F" p-id="25602"></path><path d="M297.597 771.9h6v40.534h-6zM310.682 771.9h6v40.534h-6z" fill="#518C9F" p-id="25603"></path><path d="M313.069 771.9h6v13.563h-6zM294.326 818.088h25.621v6h-25.621zM298.473 808.07h17.334v6h-17.334z" fill="#518C9F" p-id="25604"></path><path d="M321.577 815.408l2.683 5.367-8.637 4.319-2.683-5.368z" fill="#518C9F" p-id="25605"></path><path d="M318.986 812.687l5.774 1.632-2.5 8.842-5.773-1.632z" fill="#518C9F" p-id="25606"></path><path d="M318.084 792.539h6v26.846h-6z" fill="#518C9F" p-id="25607"></path><path d="M320.767 787.88l4.312 9.1-5.423 2.57-4.312-9.1z" fill="#518C9F" p-id="25608"></path><path d="M317.93 783.852l5.546 8.99-5.107 3.15-5.545-8.99z" fill="#518C9F" p-id="25609"></path><path d="M318.55 779.065l1.82 11.442-5.925 0.943-1.821-11.441zM312.417 805.401l5.291 2.83-3.705 6.927-5.29-2.83zM337.049 763.316h6v10.702h-6z" fill="#518C9F" p-id="25610"></path><path d="M337.049 763.316h10.798v6h-10.798z" fill="#518C9F" p-id="25611"></path><path d="M341.847 763.316h6v10.702h-6z" fill="#518C9F" p-id="25612"></path><path d="M345.119 771.9h11.007v6h-11.007zM290.184 723.262h6v26.844h-6zM272.315 735.318h7.746v6h-7.746zM326.373 796.425h12.535v6h-12.535z" fill="#518C9F" p-id="25613"></path><path d="M350.125 771.9h6v10.496h-6zM292.003 719.506l5.769 1.65-2.526 8.835-5.77-1.65zM276.912 734.06l5.242 4.922-4.108 4.374-5.241-4.923zM326.373 796.425h6v8.452h-6z" fill="#518C9F" p-id="25614"></path><path d="M345.119 776.396h11.007v6h-11.007zM298.882 717.81l2.41 5.494-8.76 3.84-2.409-5.494zM277.066 735.012l7.203 4.725-3.291 5.017-7.203-4.724zM326.373 798.877h12.535v6h-12.535zM359.064 785.797h6v34.408h-6zM315.408 717.797l8.767 3.836-2.406 5.497-8.767-3.837z" fill="#518C9F" p-id="25615"></path><path d="M279.366 736.381l6.64 4.685-3.46 4.902-6.639-4.684zM332.908 801.125h6v8.248h-6zM349.259 721.83h14.278v6h-14.278zM322.307 719.518l2.498 8.84-5.773 1.633-2.5-8.84z" fill="#518C9F" p-id="25616"></path><path d="M279.506 738.274l8.937 1.792-1.18 5.883-8.937-1.792zM326.373 801.125h12.535v6h-12.535zM353.396 754.939h6v10.493h-6zM318.084 723.262h6v26.844h-6z" fill="#518C9F" p-id="25617"></path><path d="M277.874 741.208l10.33 0.978-0.566 5.973-10.33-0.977zM326.373 801.125h6v8.248h-6zM353.396 754.939h10.792v6h-10.792zM326.373 721.83h14.063v6h-14.063z" fill="#518C9F" p-id="25618"></path><path d="M277.176 739.153l7.422 4.153-2.93 5.236-7.422-4.153zM326.373 803.373h12.535v6h-12.535zM358.188 754.939h6v10.493h-6zM325.497 746.354h6v10.7h-6z" fill="#518C9F" p-id="25619"></path><path d="M276.782 736.13l5.8 7.638-4.778 3.629-5.8-7.64zM332.908 805.824h6v8.246h-6zM353.396 759.433h10.792v6h-10.792zM325.497 746.354h12.536v6h-12.536z" fill="#518C9F" p-id="25620"></path><path d="M270.312 736.968l9.041 0.6-0.397 5.985-9.04-0.599zM326.373 805.824h12.535v6h-12.535zM353.396 746.354h6v10.7h-6zM325.497 751.055h12.536v6h-12.536z" fill="#518C9F" p-id="25621"></path><path d="M269.131 736.139l7.584 1.788-1.377 5.84-7.584-1.788zM326.373 805.824h6v8.246h-6zM353.396 746.354h10.792v6h-10.792zM332.033 746.354h6v10.7h-6z" fill="#518C9F" p-id="25622"></path><path d="M272.558 734.062l2.676 7.49-5.65 2.019-2.676-7.49zM326.373 808.07h12.535v6h-12.535zM358.188 746.354h6v10.7h-6zM337.049 759.433h10.798v6h-10.798z" fill="#518C9F" p-id="25623"></path><path d="M272.456 729.714l5.052 3.236-5.855 9.141-5.053-3.236zM326.373 812.564h12.535v6h-12.535zM353.396 751.055h10.792v6h-10.792zM341.847 754.939h6v10.493h-6z" fill="#518C9F" p-id="25624"></path><path d="M275.245 730.027l1.874 5.7-10.058 3.307-1.873-5.7zM326.373 810.324h6v8.24h-6zM345.119 746.354h6v10.7h-6z" fill="#518C9F" p-id="25625"></path><path d="M337.049 754.939h10.798v6h-10.798zM268.922 728.74l4.132 7.75-5.294 2.822-4.132-7.749zM326.373 810.324h12.535v6h-12.535zM345.119 746.354h11.007v6h-11.007z" fill="#518C9F" p-id="25626"></path><path d="M337.049 754.939h6v10.493h-6zM269.219 724.192l5.187 3.015-5.629 9.682-5.187-3.016zM332.908 810.324h6v8.24h-6zM350.125 746.354h6v10.7h-6z" fill="#518C9F" p-id="25627"></path><path d="M337.049 746.354h6v10.7h-6zM272.351 724.57l1.718 5.748-10.54 3.15-1.718-5.75zM301.861 805.36l3.709 6.924-5.29 2.832-3.708-6.924zM345.119 751.055h11.007v6h-11.007z" fill="#518C9F" p-id="25628"></path><path d="M337.049 746.354h10.798v6h-10.798zM265.424 723.227l4.135 7.747-5.294 2.825-4.135-7.746zM295.702 779.064l5.927 0.94-1.814 11.44-5.927-0.939zM345.119 754.939h6v10.493h-6z" fill="#518C9F" p-id="25629"></path><path d="M341.847 746.354h6v10.7h-6zM267.553 719.343l4.353 4.13-7.617 8.029-4.353-4.13zM296.312 783.889l5.112 3.143-5.53 8.994-5.112-3.143z" fill="#518C9F" p-id="25630"></path><path d="M345.119 754.939h11.007v6h-11.007z" fill="#518C9F" p-id="25631"></path><path d="M337.049 751.055h10.798v6h-10.798zM269.334 719.711l2.234 5.57-10.148 4.071-2.235-5.568zM293.526 787.87l5.416 2.583-4.337 9.093-5.416-2.583zM350.125 754.939h6v10.493h-6z" fill="#518C9F" p-id="25632"></path><path d="M353.396 763.316h6v10.702h-6zM263.118 718.027l3.927 8.97-5.497 2.406-3.927-8.97zM290.184 792.539h6v26.846h-6z" fill="#518C9F" p-id="25633"></path><path d="M345.119 759.433h11.007v6h-11.007z" fill="#518C9F" p-id="25634"></path><path d="M353.396 763.316h10.792v6h-10.792zM302.395 721.013h8.613v6h-8.613zM295.22 812.682l2.526 8.836-5.77 1.65-2.526-8.837z" fill="#518C9F" p-id="25635"></path><path d="M358.188 763.316h6v10.702h-6zM294.326 718.764h14.069v6h-14.069zM292.735 815.4l8.629 4.325-2.688 5.364-8.63-4.324z" fill="#518C9F" p-id="25636"></path><path d="M353.396 768.019h10.792v6h-10.792zM305.008 718.764h14.938v6h-14.938zM292.589 818.903h30.629v6h-30.629zM345.119 763.316h6v10.702h-6zM299.808 751.428l1.85 11.231-5.92 0.975-1.85-11.231z" fill="#518C9F" p-id="25637"></path><path d="M323.09 813.813l4.592 3.861-7.126 8.475-4.592-3.862zM345.119 763.316h11.007v6h-11.007zM295.888 746.834l5.529 8.994-5.112 3.142-5.529-8.994zM291.34 813.742l8.517 7.985-4.103 4.377-8.517-7.985z" fill="#518C9F" p-id="25638"></path><path d="M350.125 763.316h6v10.702h-6zM294.702 743.135l4.225 9.352-5.468 2.47-4.225-9.352zM315.287 717.843l5.545 2.292-6.43 15.562-5.546-2.29z" fill="#518C9F" p-id="25639"></path><path d="M345.119 768.019h11.007v6h-11.007zM319.548 743.173l5.474 2.456-4.199 9.358-5.474-2.456zM321.228 722.018l4.107 4.374-11.776 11.057-4.107-4.374z" fill="#518C9F" p-id="25640"></path><path d="M353.396 771.9h6v10.496h-6zM318.379 746.889l5.107 3.15-5.544 8.99-5.107-3.15zM298.915 717.854l6.441 15.561-5.544 2.295-6.441-15.56z" fill="#518C9F" p-id="25641"></path><path d="M353.396 771.9h10.792v6h-10.792zM314.457 751.42l5.92 0.978-1.857 11.232-5.92-0.979zM293.027 722.025l11.79 11.054-4.105 4.377-11.789-11.054z" fill="#518C9F" p-id="25642"></path><path d="M358.188 771.9h6v10.496h-6zM298.473 728.781h17.334v6h-17.334zM269.967 719.476l8.405 13.464-5.09 3.177-8.404-13.464z" fill="#518C9F" p-id="25643"></path><path d="M353.396 776.396h10.792v6h-10.792zM313.817 727.643l4.005 6.55-5.119 3.13-4.005-6.55zM275.094 727.825l6.321 9.736-5.033 3.268-6.321-9.736zM345.119 771.9h6v10.496h-6zM300.517 727.673l5.117 3.133-4.008 6.548-5.118-3.132z" fill="#518C9F" p-id="25644"></path><path d="M277.664 732.5l3.839 4.612-6.575 5.473-3.839-4.612zM158.985 625.782h111.051v6H158.985zM405.697 269.939l-3.067-5.157 4.776-2.84 1.529-1.274 1.32-1.704 0.842-1.899 0.522-1.966 0.165-2.021-0.313-1.916-0.822-1.856-1.281-1.89-1.315-1.541-1.846-1.101-5.192-2.438 2.55-5.431 5.588 2.64 2.822 1.684 2.265 2.682 1.786 2.719 1.242 2.805 0.556 3.398-0.337 3.549-0.809 2.898-1.234 2.783-2.167 2.796-2.6 2.119zM274.538 660.33l8.547 1.339-0.928 5.928-8.547-1.338zM287.046 710.61l3.802 4.642-6.387 5.23-3.801-4.642zM158.985 823.19h111.051v6H158.985zM297.777 666.3l3.495 4.875-8.581 6.151-3.495-4.876z" fill="#518C9F" p-id="25645"></path><path d="M281.756 666.473l14.346 6.888-2.597 5.409-14.346-6.888zM259.107 712.514l5.046 8.414-5.145 3.086-5.046-8.414zM531.469 136.325H804.24v6H531.469z" fill="#518C9F" p-id="25646"></path><path d="M297.296 666.198l6.674 7.283-4.424 4.053-6.673-7.283zM270.62 666.385l15.787 1.318-0.5 5.979-15.786-1.318zM262.652 713.036l6.703 2.511-2.105 5.62-6.703-2.512zM509.886 115.89h316.151v6H509.886z" fill="#518C9F" p-id="25647"></path><path d="M298.553 669.268l5.235 2.931-5.334 9.528-5.235-2.931zM275.005 665.758l2.254 5.561-15.15 6.14-2.254-5.56zM337.708 717.132h14.278v6h-14.278zM418.268 258.576l0.372 5.989-9.253 0.575-0.373-5.988z" fill="#518C9F" p-id="25648"></path><path d="M305.116 676.102l3.628 4.778-9.353 7.103-3.628-4.779zM255.066 669.29l4.891 9.642-5.35 2.714-4.892-9.642zM483.295 612.906h131.542v6H483.295zM326.373 717.132h14.063v6h-14.063zM409.155 465.792l9.48 0.552-0.349 5.99-9.48-0.552z" fill="#518C9F" p-id="25649"></path><path d="M297.216 680.51l11.217 0.885-0.472 5.981-11.216-0.884zM256.287 667.262l3.871 4.584-6.76 5.71-3.872-4.585zM304.14 711.818h67.46v6h-67.46zM462.071 296.862l-2.706-7.321-2.225-4.163-2.651-3.829-3.039-3.605-3.66-3.243-3.857-2.858-4.319-2.309-4.502-2.114-4.652-1.33-4.944-0.963-4.88-0.38-8.054 0.313-0.233-5.996 8.404-0.326 5.741 0.467 5.491 1.081 5.458 1.601 4.931 2.319 4.954 2.685 4.343 3.233 4.225 3.786 3.445 4.107 3.009 4.381 2.572 4.87 2.777 7.514z" fill="#518C9F" p-id="25650"></path><path d="M307.84 680.904l1.034 10.262-5.97 0.602-1.034-10.262zM254.233 667.635l10.15 4.074-2.235 5.568-10.15-4.074zM255.75 688.092l7.524 20.341-5.627 2.082-7.524-20.341zM315.252 455.362l94.908 6.765-0.426 5.985-94.909-6.765zM301.272 695.114l5.992 0.32-0.537 10.075-5.991-0.32zM266.29 660.942l8.65 6.76-3.695 4.728-8.65-6.761z" fill="#518C9F" p-id="25651"></path><path d="M259.687 708.227l5.12 3.128-5.75 9.41-5.12-3.129z" fill="#518C9F" p-id="25652"></path></svg>