<?xml version="1.0" standalone="no"?><!DOCTYPE svg PUBLIC "-//W3C//DTD SVG 1.1//EN" "http://www.w3.org/Graphics/SVG/1.1/DTD/svg11.dtd"><svg t="1554193574560" class="icon" style="" viewBox="0 0 1024 1024" version="1.1" xmlns="http://www.w3.org/2000/svg" p-id="2630" xmlns:xlink="http://www.w3.org/1999/xlink" width="32" height="32"><defs><style type="text/css"></style></defs><path d="M255.686667 191.2l512.64 0 0 640.613333-512.64 0 0-640.613333Z" fill="#FFD9B0" p-id="2631"></path><path d="M759.233333 191.2a9.093333 9.093333 0 0 1 9.08 9.08V822.666667a9.093333 9.093333 0 0 1-9.08 9.08H264.766667a9.093333 9.093333 0 0 1-9.08-9.08V200.28a9.093333 9.093333 0 0 1 9.08-9.08h494.466666m0-42.666667H264.766667a51.8 51.8 0 0 0-51.746667 51.746667V822.666667a51.8 51.8 0 0 0 51.746667 51.746666h494.466666A51.8 51.8 0 0 0 810.98 822.666667V200.28a51.8 51.8 0 0 0-51.746667-51.746667z" fill="#FFAE45" p-id="2632"></path><path d="M255.953333 170.426667l512.093334 0 0 682.466666-512.093334 0 0-682.466666Z" fill="#ffffff" p-id="2633" data-spm-anchor-id="a313x.7781069.0.i12" class="selected"></path><path d="M758.686667 170.426667a9.333333 9.333333 0 0 1 9.333333 9.333333v663.733333a9.4 9.4 0 0 1-9.333333 9.333334h-493.333334a9.4 9.4 0 0 1-9.333333-9.333334V179.786667a9.333333 9.333333 0 0 1 9.333333-9.333334h493.333334m0-42.666666h-493.333334a52.093333 52.093333 0 0 0-52 52v663.733333a52.106667 52.106667 0 0 0 52 52h493.333334a52.093333 52.093333 0 0 0 52-52v-663.733333a52.08 52.08 0 0 0-52-52z" fill="#999999" p-id="2634" data-spm-anchor-id="a313x.7781069.0.i11" class=""></path><path d="M882.593333 42.666667a13.493333 13.493333 0 0 1 13.453334 13.453333v911.733333A13.493333 13.493333 0 0 1 882.593333 981.333333H141.38A13.493333 13.493333 0 0 1 127.926667 967.853333V56.12A13.493333 13.493333 0 0 1 141.38 42.666667H882.593333m0-42.666667H141.38A56.186667 56.186667 0 0 0 85.26 56.12v911.733333A56.186667 56.186667 0 0 0 141.38 1024H882.593333a56.186667 56.186667 0 0 0 56.12-56.12V56.12A56.186667 56.186667 0 0 0 882.593333 0z" fill="#999999" p-id="2635" data-spm-anchor-id="a313x.7781069.0.i8" class=""></path><path d="M682.7 618.546667a21.333333 21.333333 0 0 1-21.333333-21.333334V426.76a21.333333 21.333333 0 0 1 42.666666 0v170.453333a21.333333 21.333333 0 0 1-21.333333 21.333334z" fill="#999999" p-id="2636" data-spm-anchor-id="a313x.7781069.0.i13" class=""></path></svg>