<?xml version="1.0" standalone="no"?><!DOCTYPE svg PUBLIC "-//W3C//DTD SVG 1.1//EN" "http://www.w3.org/Graphics/SVG/1.1/DTD/svg11.dtd"><svg t="1554195146963" class="icon" style="" viewBox="0 0 1024 1024" version="1.1" xmlns="http://www.w3.org/2000/svg" p-id="3645" xmlns:xlink="http://www.w3.org/1999/xlink" width="32" height="32"><defs><style type="text/css"></style></defs><path d="M853.957721 47.12632 207.101313 47.12632c-24.495904 0-50.714032 16.630772-50.714032 42.015929l0 812.290227c0 25.302269 26.724665 42.014906 50.714032 42.014906l646.856407 0c24.645306 0 44.695968-19.133779 44.695968-43.779086L898.653689 91.39864C898.651642 66.753333 878.603027 47.12632 853.957721 47.12632zM870.641705 899.66625c0 9.197476-7.482415 15.769149-16.686031 15.769149L207.101313 915.435399c-11.036357 0-22.704095-6.756891-22.704095-14.004969L184.397219 761.380744l686.244486 0L870.641705 899.66625zM870.641705 733.370807 184.397219 733.370807 184.397219 509.291308l686.244486 0L870.641705 733.370807zM870.641705 481.281371 184.397219 481.281371 184.397219 257.20085l686.244486 0L870.641705 481.281371zM870.641705 229.190913 184.397219 229.190913 184.397219 89.14225c0-7.638981 12.692067-14.005992 22.704095-14.005992l646.856407 0c9.203616 0 16.686031 7.063883 16.686031 16.262382L870.641705 229.190913 870.641705 229.190913zM307.02307 94.037746c-27.818579 0-50.439786 22.62837-50.439786 50.439786 0 27.812439 22.621207 50.446949 50.439786 50.446949 27.819602 0 50.440809-22.63451 50.440809-50.446949C357.463879 116.666116 334.842673 94.037746 307.02307 94.037746zM307.02307 166.907381c-12.363585 0-22.429849-10.0591-22.429849-22.429849s10.066263-22.437012 22.429849-22.437012c12.364609 0 22.429849 10.066263 22.429849 22.437012S319.387679 166.907381 307.02307 166.907381zM307.02307 421.813978c27.819602 0 50.440809-22.627347 50.440809-50.439786 0-27.811416-22.621207-50.439786-50.440809-50.439786-27.818579 0-50.439786 22.62837-50.439786 50.439786C256.583285 399.186631 279.205515 421.813978 307.02307 421.813978zM307.02307 348.944344c12.364609 0 22.429849 10.05296 22.429849 22.429849 0 12.370749-10.06524 22.423709-22.429849 22.423709-12.363585 0-22.429849-10.05296-22.429849-22.423709C284.593222 358.998327 294.659485 348.944344 307.02307 348.944344zM314.245566 648.704498c27.819602 0 50.439786-22.626323 50.439786-50.439786 0-27.811416-22.620184-50.438763-50.439786-50.438763s-50.439786 22.627347-50.439786 50.438763C263.80578 626.077152 286.425963 648.704498 314.245566 648.704498zM314.245566 575.835887c12.363585 0 22.429849 10.0591 22.429849 22.428825 0 12.371772-10.066263 22.430872-22.429849 22.430872s-22.429849-10.0591-22.429849-22.430872C291.815717 585.894987 301.88198 575.835887 314.245566 575.835887zM314.245566 875.602182c27.819602 0 50.439786-22.635533 50.439786-50.439786 0-27.813462-22.620184-50.439786-50.439786-50.439786s-50.439786 22.626323-50.439786 50.439786C263.80578 852.966649 286.425963 875.602182 314.245566 875.602182zM314.245566 802.726407c12.363585 0 22.429849 10.066263 22.429849 22.437012s-10.066263 22.422685-22.429849 22.422685-22.429849-10.051937-22.429849-22.422685S301.88198 802.726407 314.245566 802.726407z" p-id="3646" fill="#999999"></path></svg>