<?xml version="1.0" standalone="no"?><!DOCTYPE svg PUBLIC "-//W3C//DTD SVG 1.1//EN" "http://www.w3.org/Graphics/SVG/1.1/DTD/svg11.dtd"><svg t="1554106756486" class="icon" style="" viewBox="0 0 1365 1024" version="1.1" xmlns="http://www.w3.org/2000/svg" p-id="42837" xmlns:xlink="http://www.w3.org/1999/xlink" width="42.65625" height="32"><defs><style type="text/css"></style></defs><path d="M965.872473 617.448567c2.445679 2.957565 5.175739 6.256387 8.133303 10.237725l180.809598 321.06643a18.371029 18.371029 0 0 1 0 5.801377l-943.349478-1.194401a20.646079 20.646079 0 0 1 0-5.346368l183.198401-321.350811c1.876916-3.241946 3.981337-6.37014 6.256387-9.327705h-40.9509l-206.062652 344.72695v60.800711a15.072206 15.072206 0 0 0 2.957565 0L1208.790935 1023.772495h2.27505v-63.530771l-202.593201-342.793157h-42.657187z m-371.970673-446.592313c13.138414 49.027327 44.420351 93.390802 95.040213 93.390802s82.299933-44.875361 95.438347-94.187069a38.67585 38.67585 0 0 0 20.47545-39.813375 23.888025 23.888025 0 0 0-13.365919-21.38547C788.077316 48.060431 748.491446 0 688.942013 0c-59.492557 0-98.850922 47.662297-102.206621 108.064874-9.213952 2.161297-13.309042 14.10531-14.56032 25.423684a32.533215 32.533215 0 0 0 21.669851 37.367696z m764.985558 333.408576c-10.237725-63.075761-44.079094-95.324595-67.568984-106.415463a114.150633 114.150633 0 0 0-50.335481 15.697845c-15.811597 8.872695-87.703177 66.602088-87.703177 66.602088s11.83026-51.757387 7.166407-46.638525c-17.119751 20.759831-30.48567 44.363475-39.472117 69.787159-14.787825 57.558765-22.124861 59.890691-41.917796 166.419906l152.314596 237.742724H1365.029993c0-203.616974-2.843812-303.491669-6.142635-403.25261z m-168.922461-147.878249c40.097756 10.294601 114.093757-36.571429 128.312819-136.503 2.502555-61.483226-34.353255-112.785603-93.845812-115.515663-43.339702-1.706287-92.025772 37.936459-93.959565 99.64719-1.933792 61.710731 4.493224 138.493668 59.492558 152.428349zM244.112864 503.35481a233.533881 233.533881 0 0 0-39.58587-69.787158c-4.606976-5.00511 9.498334 58.866918 9.498334 58.866918S139.688069 422.419907 123.933348 413.490335a112.273717 112.273717 0 0 0-50.221728-15.584092C50.221729 408.940236 16.266607 440.790935 6.142635 504.26483 2.843812 603.968896 0 703.84359 0 907.517441h133.659187l152.655854-237.799601c-20.47545-105.903577-27.3006-108.861142-42.259053-166.419906zM175.00822 356.443457c54.6012-13.934681 61.995112-90.717618 59.492558-152.428349-2.445679-61.710731-51.131749-101.524106-93.959565-99.64719C81.105532 106.699844 44.249722 158.115974 46.638525 219.883581c14.730949 99.931571 88.328816 146.740724 128.426572 136.503z" p-id="42838" fill="#999999"></path><path d="M541.461897 603.570762c0-9.498334 0-19.11042 0.796268-28.495001 3.241946-58.127527 19.508554-141.337481 27.186847-144.522551v173.074428h274.65541V445.909798l1.876916 2.843812c11.659631 18.2004 23.888025 36.571429 35.092646 51.643635 5.801377 7.621417 10.522106 14.332815 16.721618 20.646079 3.071317 3.355699 6.37014 6.540769 9.896467 9.498333a55.397467 55.397467 0 0 0 7.393913 5.232615 51.188625 51.188625 0 0 0 27.129971 7.73517 56.762497 56.762497 0 0 0 22.7505-4.720728c4.265719-1.763164 8.474561-3.867585 12.512775-6.256388 6.256387-4.151966 12.28527-8.588314 18.029771-13.479671 10.522106-8.474561 20.47545-18.257276 30.770051-28.438125 11.37525-11.37525 22.124861-23.319262 32.135081-35.832037l-65.009553-63.815152a245.762275 245.762275 0 0 1-23.034881 26.845589c-7.223284 7.393912-14.503444 14.56032-20.987337 20.646079-3.981337-5.801377-8.417685-12.057765-12.74028-18.769162a1770.61453 1770.61453 0 0 1-37.538324-59.094424c-5.403244-8.531437-9.839591-15.92535-12.854033-20.646078l-3.696956-6.085759-1.251278-2.047545a44.647856 44.647856 0 0 0-8.19018-10.294601c-4.322595-6.82515-19.337925-15.584092-64.838924-28.438125A307.984892 307.984892 0 0 0 776.758942 284.381249l-69.389024 106.529215-58.298156-86.110642-11.545879-20.077316c-9.213952 1.706287-18.086647 4.948234-26.219951 9.55521a621.088647 621.088647 0 0 0-91.002 35.547656c-11.147745 11.204621-51.074872 65.748945-64.611419 240.359031-0.625639 9.725839-0.739391 21.271717-0.625639 33.443235l86.338147-0.056876z m525.365919-231.486336c-29.063764-28.66563-64.383915 8.929571-66.260831 11.090868l65.009554 63.815153c5.061986-5.687625 30.48567-46.183515 1.251277-74.849145z m-74.16663 253.611197h0.113753l-0.113753-0.170629v0.170629z" p-id="42839" fill="#999999"></path></svg>