<?xml version="1.0" standalone="no"?><!DOCTYPE svg PUBLIC "-//W3C//DTD SVG 1.1//EN" "http://www.w3.org/Graphics/SVG/1.1/DTD/svg11.dtd"><svg t="1554195585743" class="icon" style="" viewBox="0 0 1024 1024" version="1.1" xmlns="http://www.w3.org/2000/svg" p-id="4474" xmlns:xlink="http://www.w3.org/1999/xlink" width="32" height="32"><defs><style type="text/css"></style></defs><path d="M510.211465 517.120745m-506.879254 0a506.879255 506.879255 0 1 0 1013.758509 0 506.879255 506.879255 0 1 0-1013.758509 0Z" fill="#ffffff" p-id="4475" data-spm-anchor-id="a313x.7781069.0.i18" class=""></path><path d="M434.496829 430.227767h351.659992v28.020377H434.496829v-28.020377z m306.39303 418.346786V574.843574H521.62402v-20.248768H740.889859v-86.020003h29.532115v379.978458H740.889859z m-23.847129-587.427193a29.851496 29.851496 0 0 1-11.519016 10.454412l6.23858 115.083692h-15.585803v-112.592519a27.74358 27.74358 0 0 1-14.883163-2.512466l-12.881709 20.930115a23.783253 23.783253 0 0 1-32.853679 7.516104l-4.258416-2.66151 90.257127-144.104797 4.364876 2.66151c11.093174 7.026386 14.499906 21.739214 7.494812 32.917556l-22.377976 35.749402c10.795085 8.793629 13.648223 24.443308 6.004367 36.558501z" fill="#999999" p-id="4476" data-spm-anchor-id="a313x.7781069.0.i20" class=""></path><path d="M721.024349 500.257418v40.412368h-164.821991v-30.064417zM608.666043 296.619965l102.393612-163.395421 9.219471 5.791446-102.393613 163.395421zM653.123906 416.111118a20.227476 20.227476 0 0 1 20.206184-20.206184h43.521011a20.227476 20.227476 0 0 1 20.206184 20.206184h-83.933379zM483.596365 416.111118v-21.419832l147.724451-18.971244v40.391076zM443.333042 557.831202a16.607822 16.607822 0 0 1 0 33.173061h-158.562119a16.607822 16.607822 0 0 1 0-33.173061h158.562119zM396.447882 805.13871a18.949951 18.949951 0 1 0 37.942487 0 18.971243 18.971243 0 0 0-37.942487 0zM347.305762 600.713451h33.982159v159.605431h-33.982159v-159.605431zM292.734161 805.13871a18.949951 18.949951 0 0 0 18.971243 18.971244 18.992535 18.992535 0 1 0-18.971243-18.971244zM299.505042 768.516333a7.132847 7.132847 0 0 1 7.111555-7.111555h115.339197c3.917743 0 7.090263 3.193812 7.090263 7.154139a7.111555 7.111555 0 0 1-7.090263 7.111555h-115.339197a7.154139 7.154139 0 0 1-7.111555-7.154139z m-60.81018-180.109704a20.482981 20.482981 0 0 1-20.057139-16.224565l-50.67515-244.262741a20.632025 20.632025 0 0 1 20.099723-24.741397c9.879525 0 18.140852 6.983802 20.099723 16.267149l50.653859 244.241449a20.504273 20.504273 0 0 1-20.05714 24.698813l-0.063876 0.021292z" fill="#999999" p-id="4477" data-spm-anchor-id="a313x.7781069.0.i19" class=""></path></svg>