<?xml version="1.0" standalone="no"?><!DOCTYPE svg PUBLIC "-//W3C//DTD SVG 1.1//EN" "http://www.w3.org/Graphics/SVG/1.1/DTD/svg11.dtd"><svg t="1554167347618" class="icon" style="" viewBox="0 0 1024 1024" version="1.1" xmlns="http://www.w3.org/2000/svg" p-id="1961" xmlns:xlink="http://www.w3.org/1999/xlink" width="32" height="32"><defs><style type="text/css"></style></defs><path d="M307.712 912.896c154.624-7.68 165.888-34.304 165.888-151.552V165.888H377.344c-202.752 0-223.232 34.304-269.312 196.608h-24.576c9.216-91.136 13.824-184.32 16.896-270.848h24.576c10.752 18.432 21.504 27.648 34.304 32.768 12.288 4.608 27.648 4.608 49.664 4.608h624.128c40.448 0 51.2-7.68 72.704-37.376l26.112 1.536c-3.072 72.704 6.144 170.496 13.824 263.168l-26.112 6.144c-37.376-175.104-96.256-196.608-227.84-196.608h-137.728v594.944c0 117.76 10.752 143.872 172.032 151.552v21.504H307.712v-20.992z" fill="#999999" p-id="1962"></path></svg>